Coordinates
version=1
nRows=16
nColumns=30
inDegrees=yes

Units are S.I. units (second, meters, Newtons, ...)
Angles are in degrees.

endheader
time	floatyaw	floatroll	floatpitch	floatx	floaty	floatz	pro_sup_l	deviation_l	flexion_l	cmc_flexion_l	cmc_abduction_l	mp_flexion_l	ip_flexion_l	2mcp_flexion_l	2mcp_abduction_l	2pm_flexion_l	2md_flexion_l	3mcp_flexion_l	3mcp_abduction_l	3pm_flexion_l	3md_flexion_l	4mcp_flexion_l	4mcp_abduction_l	4pm_flexion_l	4md_flexion_l	5mcp_flexion_l	5mcp_abduction_l	5pm_flexion_l	5md_flexion_l
-1.495000	-160.147433	-5.066637	-73.570646	0.077528	-0.180479	-0.021322	98.245644	-0.031134	-1.368709	15.194199	0.610822	-25.196458	-40.856984	30.544503	6.750961	41.745851	29.224378	24.181175	3.998242	43.902466	29.107094	13.687527	-4.395025	51.551703	35.647160	0.294555	-7.589052	61.598928	42.368142
-1.485000	-160.147433	-5.066637	-73.570646	0.077532	-0.180478	-0.021338	98.236101	-0.036804	-1.364780	15.183696	0.605071	-25.200160	-40.857475	30.554172	6.751199	41.759126	29.231885	24.176839	3.996040	43.912970	29.109330	13.686456	-4.391539	51.539860	35.640001	0.286965	-7.585121	61.592068	42.363108
-1.475000	-160.147433	-5.066637	-73.570646	0.077537	-0.180472	-0.021355	98.226086	-0.038391	-1.358898	15.176302	0.607838	-25.210523	-40.863086	30.571036	6.746064	41.774566	29.241254	24.176037	3.994881	43.909178	29.104337	13.686986	-4.389755	51.530576	35.635600	0.277628	-7.580586	61.592113	42.366933
-1.465000	-160.147433	-5.066637	-73.570646	0.077542	-0.180462	-0.021372	98.215099	-0.034807	-1.351780	15.169829	0.628186	-25.223198	-40.869237	30.592019	6.739286	41.790886	29.252432	24.179564	3.995992	43.893833	29.095060	13.688717	-4.389979	51.530394	35.637965	0.268331	-7.577976	61.603140	42.382041
-1.455000	-160.147433	-5.066637	-73.570646	0.077544	-0.180449	-0.021390	98.200163	-0.027874	-1.344807	15.160722	0.670170	-25.234772	-40.871966	30.613470	6.734558	41.805763	29.264411	24.186274	3.999885	43.874534	29.086595	13.690183	-4.391932	51.543288	35.649629	0.258843	-7.578835	61.625551	42.408085
-1.445000	-160.147433	-5.066637	-73.570646	0.077540	-0.180438	-0.021413	98.178238	-0.021243	-1.339359	15.145972	0.728374	-25.243922	-40.869849	30.633315	6.733829	41.816130	29.275002	24.193634	4.005956	43.860784	29.083991	13.689666	-4.394971	51.568645	35.670026	0.247942	-7.583186	61.655063	42.441101
-1.435000	-160.147433	-5.066637	-73.570646	0.077531	-0.180431	-0.021443	98.149273	-0.018139	-1.335875	15.124414	0.788444	-25.250816	-40.863637	30.651544	6.736929	41.818798	29.281355	24.198894	4.012623	43.859695	29.089914	13.686007	-4.398323	51.601052	35.695189	0.234934	-7.589826	61.684321	42.474557
-1.425000	-160.147433	-5.066637	-73.570646	0.077517	-0.180428	-0.021484	98.117719	-0.019379	-1.333208	15.096782	0.833060	-25.255639	-40.854538	30.669133	6.742454	41.811034	29.280879	24.200314	4.017965	43.872473	29.103296	13.679003	-4.401197	51.632126	35.719088	0.220549	-7.597218	61.706523	42.501943
-1.415000	-160.147433	-5.066637	-73.570646	0.077501	-0.180426	-0.021536	98.090981	-0.023053	-1.328823	15.064810	0.850113	-25.257702	-40.842920	30.686718	6.748971	41.791156	29.272173	24.197894	4.020556	43.893723	29.119702	13.669418	-4.402844	51.653731	35.736045	0.206694	-7.604245	61.718748	42.519351
-1.405000	-160.147433	-5.066637	-73.570646	0.077484	-0.180419	-0.021597	98.075180	-0.025990	-1.319951	15.030197	0.838119	-25.256090	-40.828567	30.704255	6.755564	41.759454	29.255746	24.193367	4.020076	43.914184	29.133373	13.658924	-4.402739	51.661268	35.743058	0.195418	-7.610329	61.722918	42.526592
-1.395000	-160.147433	-5.066637	-73.570646	0.077468	-0.180403	-0.021664	98.070521	-0.025909	-1.305149	14.994099	0.805729	-25.251429	-40.812194	30.721616	6.761617	41.719513	29.234488	24.189458	4.017389	43.925721	29.140064	13.650171	-4.400881	51.655560	35.740870	0.188067	-7.615206	61.724094	42.526532
-1.385000	-160.147433	-5.066637	-73.570646	0.077451	-0.180378	-0.021734	98.069207	-0.022627	-1.285243	14.957173	0.766082	-25.247227	-40.796781	30.739124	6.766429	41.679211	29.213699	24.188810	4.014039	43.926028	29.139327	13.646787	-4.397931	51.642355	35.733279	0.185357	-7.618919	61.727541	42.523367
-1.375000	-160.147433	-5.066637	-73.570646	0.077430	-0.180346	-0.021810	98.057766	-0.017432	-1.262891	14.919791	0.729674	-25.249267	-40.787302	30.757223	6.769276	41.649934	29.200125	24.193108	4.011406	43.920218	29.134857	13.652828	-4.394942	51.629479	35.725044	0.188161	-7.622159	61.736349	42.520784
-1.365000	-160.147433	-5.066637	-73.570646	0.077402	-0.180311	-0.021896	98.023287	-0.010966	-1.241026	14.882229	0.699695	-25.262878	-40.788636	30.775649	6.769845	41.643134	29.199697	24.202810	4.010050	43.917926	29.132376	13.671506	-4.392758	51.623045	35.719500	0.198115	-7.626359	61.750607	42.520694
-1.355000	-160.147433	-5.066637	-73.570646	0.077361	-0.180274	-0.021995	97.960429	-0.001126	-1.221413	14.844843	0.671935	-25.289606	-40.802792	30.793188	6.768550	41.665237	29.214668	24.217438	4.009638	43.927352	29.136114	13.703715	-4.391497	51.624780	35.717156	0.217254	-7.633001	61.768126	42.522815
-1.345000	-160.147433	-5.066637	-73.570646	0.077306	-0.180234	-0.022111	97.874978	0.017428	-1.204387	14.808151	0.638780	-25.325536	-40.827198	30.808441	6.766321	41.713674	29.241833	24.236054	4.009450	43.949967	29.146086	13.747241	-4.390458	51.631945	35.715965	0.246825	-7.642340	61.785827	42.525096
